{"title":"The.Big.Bang.Theory.S06E03.1080p.WEB-DL.DD5.1.H.264","uid":7725079,"size":802292009,"categoryP":"video","categoryS":"hd___tv_shows","magnet":"?xt=urn:btih:b05ef05d009c5584a6a2de31b900b9f7c92469a1&amp;dn=The.Big.Bang.Theory.S06E03.1080p.WEB-DL.DD5.1.H.264&amp;tr=udp%3A%2F%2Ftracker.openbittorrent.com%3A80&amp;tr=udp%3A%2F%2Fopen.demonii.com%3A1337&amp;tr=udp%3A%2F%2Ftracker.coppersurfer.tk%3A6969&amp;tr=udp%3A%2F%2Fexodus.desync.com%3A6969","seeders":1,"leechers":1,"uploader":"sceneline","files":4,"time":1350191529,"description":"- &lt;a href=&quot;\nhttp://www.Speed.Cd&quot; rel=&quot;nofollow&quot; target=&quot;_NEW&quot;&gt;\nhttp://www.Speed.Cd&lt;/a&gt;\n &lt;a href=&quot;\nhttp://www.Speed.Cd&quot; rel=&quot;nofollow&quot; target=&quot;_NEW&quot;&gt;\nhttp://www.Speed.Cd&lt;/a&gt;       the fast  and The Hottest Private Tracker on the net\n\nPlease Seed back to make the speed Faster!!\n ............ NFO .............\n-General\nUnique ID                      : 191141213960321734598698543160412498348 (0x8FCC75711DD441DC80415E011C0269AC)\nComplete name                  : The.Big.Bang.Theory.S06E03.1080p.WEB-DL.DD5.1.H.264.mkv\nFormat                         : Matroska\nFormat version                 : Version 2\nFile size                      : 765 MiB\nDuration                       : 19mn 34s\nOverall bit rate               : 5 463 Kbps\nEncoded date                   : UTC 2012-10-13 16:24:27\nWriting application            : mkvmerge v5.7.0 ('The Whirlwind') built on Jul 15 2012 00:01:52\nWriting library                : libebml v1.2.2 + libmatroska v1.3.0\n\nVideo\nID                             : 1\nFormat                         : AVC\nFormat/Info                    : Advanced Video Codec\nFormat profile                 : &lt;a class=&quot;__cf_email__&quot; href=&quot;/cdn-cgi/l/email-protection&quot; data-cfemail=&quot;246c4d434c6468100a14&quot;&gt;[email&amp;#160;protected]&lt;/a&gt;&lt;script cf-hash='f9e31' type=&quot;text/javascript&quot;&gt;\n/* &lt;![CDATA[ */!function(){try{var t=&quot;currentScript&quot;in document?document.currentScript:function(){for(var t=document.getElementsByTagName(&quot;script&quot;),e=t.length;e--;)if(t[e].getAttribute(&quot;cf-hash&quot;))return t[e]}();if(t&amp;&amp;t.previousSibling){var e,r,n,i,c=t.previousSibling,a=c.getAttribute(&quot;data-cfemail&quot;);if(a){for(e=&quot;&quot;,r=parseInt(a.substr(0,2),16),n=2;a.length-n;n+=2)i=parseInt(a.substr(n,2),16)^r,e+=String.fromCharCode(i);e=document.createTextNode(e),c.parentNode.replaceChild(e,c)}}}catch(u){}}();/* ]]&gt; */&lt;/script&gt;\nFormat settings, CABAC         : Yes\nFormat settings, ReFrames      : 4 frames\nCodec ID                       : V_MPEG4/ISO/AVC\nDuration                       : 19mn 34s\nBit rate                       : 4 970 Kbps\nWidth                          : 1 920 pixels\nHeight                         : 1 080 pixels\nDisplay aspect ratio           : 16:9\nFrame rate mode                : Constant\nFrame rate                     : 23.976 fps\nColor space                    : YUV\nChroma subsampling             : 4:2:0\nBit depth                      : 8 bits\nScan type                      : Progressive\nBits/(Pixel*Frame)             : 0.100\nStream size                    : 696 MiB (91%)\nTitle                          : Video\nLanguage                       : English\nDefault                        : Yes\nForced                         : Yes\nColor primaries                : BT.709\nTransfer characteristics       : BT.709\nMatrix coefficients            : BT.709\n\nAudio\nID                             : 2\nFormat                         : AC-3\nFormat/Info                    : Audio Coding 3\nMode extension                 : CM (complete main)\nFormat settings, Endianness    : Big\nCodec ID                       : A_AC3\nDuration                       : 19mn 34s\nBit rate mode                  : Constant\nBit rate                       : 384 Kbps\nChannel(s)                     : 6 channels\nChannel positions              : Front: L C R, Side: L R, LFE\nSampling rate                  : 48.0 KHz\nBit depth                      : 16 bits\nCompression mode               : Lossy\nStream size                    : 53.8 MiB (7%)\nTitle                          : English\nLanguage                       : English\nDefault                        : Yes\nForced                         : Yes","torrent":{"xt":"urn:btih:b05ef05d009c5584a6a2de31b900b9f7c92469a1","amp;dn":"The.Big.Bang.Theory.S06E03.1080p.WEB-DL.DD5.1.H.264","amp;tr":["udp%3A%2F%2Ftracker.openbittorrent.com%3A80","udp%3A%2F%2Fopen.demonii.com%3A1337","udp%3A%2F%2Ftracker.coppersurfer.tk%3A6969","udp%3A%2F%2Fexodus.desync.com%3A6969"],"infoHash":"b05ef05d009c5584a6a2de31b900b9f7c92469a1","infoHashBuffer":{"type":"Buffer","data":[176,94,240,93,0,156,85,132,166,162,222,49,185,0,185,247,201,36,105,161]},"announce":[],"urlList":[]}}